<?xml version="1.0" encoding="UTF-8"?>
<svg width="920px" height="600px" viewBox="0 0 920 600" version="1.1" xmlns="http://www.w3.org/2000/svg" xmlns:xlink="http://www.w3.org/1999/xlink">
    <!-- Generator: Sketch 52.6 (67491) - http://www.bohemiancoding.com/sketch -->
    <title>Email_Bussines_illustration</title>
    <desc>Created with Sketch.</desc>
    <defs>
        <path d="M0.996323529,0.376811594 L47.1139706,0.376811594 L41.8862057,31.9837329 C41.7531916,32.7879332 41.1454314,33.4309448 40.3499994,33.6090426 C35.3165944,34.7360255 30.0332612,35.2995169 24.5,35.2995169 C18.9310391,35.2995169 13.3613259,34.7287309 7.79086035,33.5871589 L7.7908636,33.5871431 C6.9793701,33.4208413 6.35437899,32.7714953 6.21920561,31.95424 L0.996323529,0.376811594 Z" id="path-1"></path>
        <path d="M10.7314511,160.34002 L203.908857,6.6465298 C214.377152,-1.68212979 229.235165,-1.587846 239.59692,6.87299386 L427.549514,160.344756 C434.16315,165.745087 438,173.831519 438,182.369889 L438,413.734898 C438,429.439115 425.269217,442.169898 409.565,442.169898 L28.4350001,442.169898 C12.7307832,442.169898 -5.18221546e-15,429.439115 -7.10542736e-15,413.734898 L1.0658141e-14,182.591617 C9.59700264e-15,173.926765 3.95083533,165.734732 10.7314511,160.34002 Z" id="path-3"></path>
        <path d="M51.9583351,97.5685173 L48.4137995,120.609043 C49.1211743,137.400208 48.617195,154.819843 46.9018615,172.867948 C45.1865279,190.916053 41.4830824,217.765387 35.791525,253.415949 C32.0302001,255.065325 28.0639082,255.890013 23.8926492,255.890013 C19.7213903,255.890013 15.7293675,254.643693 11.9165811,252.151052 C5.30431201,194.295743 1.64792691,155.431971 0.947425817,135.559738 C-1.27014008,72.6505056 3.80056976,33.1327373 3.34543298,18.7127694 C3.1945887,13.9336136 5.57720981,9.74803146 10.4932963,6.15602305 L28.4129851,6.15602305 C28.2374839,4.47614682 28.0742323,2.79166723 27.9232301,1.10258428 L97.9409326,4.25329089 C104.008756,70.4688919 107.042668,113.91493 107.042668,134.591406 C107.042668,155.267882 103.970563,192.939775 97.8263531,247.607086 C92.66615,250.364543 87.9960561,251.743271 83.8160717,251.743271 C79.6360872,251.743271 76.1333556,250.446284 73.3078768,247.852309 C63.9143813,179.983691 59.2176336,135.123652 59.2176336,113.272192 C56.6461611,108.094645 54.226395,102.860087 51.9583351,97.5685173 Z" id="path-5"></path>
        <path d="M7.03615888,17.3124822 C4.2392303,14.6779281 1.96388705,11.0921504 2.97601502,10.3355987 C3.61029333,9.86148443 5.02390971,10.4700344 7.21686416,12.1612485 C7.74167365,11.4799331 8.28327627,10.6980569 8.58595741,9.73820409 C8.74079451,9.24718962 8.41146708,8.27844936 7.59797512,6.83198332 C2.27404669,4.52767437 -0.233781655,2.78754594 0.0744900903,1.61159803 C0.536897709,-0.152323834 10.173789,2.83931738 13.449169,4.88713917 C15.6327557,6.25235369 19.4832258,11.5196165 25.0005794,20.6889275 L16.0007653,27.7299272 C11.5628932,23.1096833 8.5746911,19.6372017 7.03615888,17.3124822 Z" id="path-7"></path>
        <path d="M29.7814927,17.1243078 C29.0269588,16.7974584 21.232597,12.7378296 20.6614497,12.0404729 C17.0650055,7.64930319 16.6396345,-2.7470687 13.533941,-2.27015329 C9.93503574,-1.71749947 13.9372016,3.41588731 11.8580879,4.55592281 C9.77897422,5.6959583 11.7560938,-1.28731402 10.6999213,-1.77087903 C10.2906847,-1.95824661 7.99246232,-2.13621654 6.46457236,-0.0245591459 C4.04922887,3.31362491 2.29936326,9.75906404 3.40107364,11.0504486 C5.19970031,13.1587328 7.0237991,17.9907635 15.6765288,19.9339838 C21.5109413,26.7822965 25.1158527,30.1563153 26.4912629,30.0560402 L29.7814927,17.1243078 Z" id="path-9"></path>
    </defs>
    <g id="Email_Bussines_illustration" stroke="none" stroke-width="1" fill="none" fill-rule="evenodd">
        <g id="Group-29" transform="translate(30.000000, 52.000000)">
            <g id="Group-28">
                <path d="M163.873505,548 C36.6068135,491.185239 -16.5319213,434.124839 4.45730041,376.818802 C35.941133,290.859745 172.62581,454.910784 156.496891,253.598453 C140.367971,52.2861231 224.581229,-17.4892387 374.512755,85.6805343 C524.444281,188.850307 499.694976,-36.1373111 627.137545,5.11357111 C754.580113,46.3644533 647.745484,301.7515 790.678564,205.185755 C902.62108,129.557268 896.499223,327.548126 861.517187,400.323209 C838.19583,448.839931 795.400171,497.193227 733.13021,545.383097 L163.873505,548 Z" id="Path-55" fill="#EBEEFE" fill-rule="nonzero" transform="translate(442.000000, 274.000000) scale(-1, 1) translate(-442.000000, -274.000000) "></path>
                <g id="Group-54" transform="translate(92.000000, 322.000000)">
                    <g id="Group-51-Copy" transform="translate(97.500000, 158.000000) rotate(-85.000000) translate(-97.500000, -158.000000) translate(65.000000, 119.000000)">
                        <path d="M47.0750974,74.584123 C42.9924171,71.2888986 40.1769234,66.2280191 38.6286163,59.4014844 C36.3061555,49.1616824 11.5294702,37.5697121 6.89961832,32.3896413 C4.3129323,29.4955495 -1.36765028,22.6124885 1.19412553,11.603878 C3.21028385,2.93992634 11.2299977,0.0981537083 19.7830945,0.812678728 C28.3361913,1.52720375 33.2515433,5.15370577 37.7060195,16.83312 C42.1604956,28.5125342 43.842101,30.3194635 50.3754682,32.3896413 C56.9088354,34.4598192 56.9088354,43.2453366 56.9088354,48.1794645 C56.9088354,53.1135923 62.1430572,60.1298055 63.4574437,62.1878034 C64.7718302,64.2458013 65.2322048,69.4223494 63.4574437,72.9493594 C61.6826826,76.4763693 58.557487,77.0480126 55.9799141,77.0480126 C54.2615321,77.0480126 51.2932599,76.2267161 47.0750974,74.584123 Z" id="Path-22" fill="#323044" fill-rule="nonzero"></path>
                        <path d="M9.23479561,1.16250385 C29.5395156,19.6518174 44.0506469,40.0015151 52.7681894,62.211597" id="Path-25" stroke="#3F3D56" stroke-width="0.907500039"></path>
                        <path d="M30.7981962,25.4330847 C31.397463,35.3126436 29.9842895,41.9599562 26.5586755,45.3750223" id="Path-46" stroke="#3F3D56" stroke-width="0.907500039" transform="translate(28.745355, 35.404054) rotate(7.000000) translate(-28.745355, -35.404054) "></path>
                        <path d="M36.9065428,34.5352946 C37.5045251,43.0833761 36.9149723,48.2599405 35.1378844,50.0649878" id="Path-47" stroke="#3F3D56" stroke-width="0.907500039" transform="translate(36.135131, 42.300141) rotate(7.000000) translate(-36.135131, -42.300141) "></path>
                    </g>
                    <g id="Group-52" transform="translate(45.000000, 0.000000)">
                        <path d="M7.05241282,188.597794 C-1.25458665,174.854337 -1.25458665,163.130907 7.05241282,153.427504 C19.512912,138.872399 15.652363,136.538626 12.639809,125.550681 C9.62725504,114.562736 13.7952309,99.0095538 21.1826166,92.8244298 C28.5700024,86.6393059 29.2558088,82.1065266 27.5734367,68.5159038 C26.4518554,59.4554886 31.6049683,50.805485 43.0327757,42.565893 C47.2788463,35.9279587 49.4018816,28.120296 49.4018816,19.1429049 C49.4018816,5.67681812 62.4661821,-0.6231913 69.0623391,1.07747767 C75.6584961,2.77814665 88.4407029,24.8296919 79.838004,42.565893 C71.2353052,60.3020941 66.1248824,63.205359 64.4189375,65.2977296 C62.7129925,67.3901003 58.6661972,73.8076217 61.5425673,85.7555538 C64.4189375,97.703486 52.5672047,102.95892 46.2167572,110.732984 C39.8663097,118.507047 40.4327908,128.477844 44.9173362,140.952674 C49.4018816,153.427504 44.4052065,181.358382 37.5606747,186.677293 C32.9976536,190.223234 22.8282329,190.863401 7.05241282,188.597794 Z" id="Path-26" fill="#536DFE" fill-rule="nonzero"></path>
                        <path d="M7.05241282,188.597794 C-1.25458665,174.854337 -1.25458665,163.130907 7.05241282,153.427504 C19.512912,138.872399 15.652363,136.538626 12.639809,125.550681 C9.62725504,114.562736 13.7952309,99.0095538 21.1826166,92.8244298 C28.5700024,86.6393059 29.2558088,82.1065266 27.5734367,68.5159038 C26.4518554,59.4554886 31.6049683,50.805485 43.0327757,42.565893 C47.2788463,35.9279587 49.4018816,28.120296 49.4018816,19.1429049 C49.4018816,5.67681812 62.4661821,-0.6231913 69.0623391,1.07747767 C75.6584961,2.77814665 88.4407029,24.8296919 79.838004,42.565893 C71.2353052,60.3020941 66.1248824,63.205359 64.4189375,65.2977296 C62.7129925,67.3901003 58.6661972,73.8076217 61.5425673,85.7555538 C64.4189375,97.703486 52.5672047,102.95892 46.2167572,110.732984 C39.8663097,118.507047 40.4327908,128.477844 44.9173362,140.952674 C49.4018816,153.427504 44.4052065,181.358382 37.5606747,186.677293 C32.9976536,190.223234 22.8282329,190.863401 7.05241282,188.597794 Z" id="Path-26-Copy-3" fill-opacity="0.1" fill="#000000" fill-rule="nonzero"></path>
                        <path d="M21.4590374,187.917442 C22.7076992,122.70957 36.358344,69.5447308 62.410972,28.4229245" id="Path-27" stroke="#3F3D56" stroke-width="0.907500039"></path>
                        <path d="M25.921374,132.767383 C32.9409591,127.52825 37.3638512,124.562589 39.1900504,123.8704" id="Path-42" stroke="#3F3D56" stroke-width="0.907500039"></path>
                        <path d="M23.6022563,144.3012 C32.4831817,137.7326 37.836744,134.102206 39.6629433,133.410018" id="Path-42-Copy" stroke="#3F3D56" stroke-width="0.907500039"></path>
                        <path d="M33.9648112,92.4862123 C30.6344786,84.8302753 28.7309067,81.0023068 28.2540953,81.0023068" id="Path-43" stroke="#3F3D56" stroke-width="0.907500039"></path>
                        <path d="M36.0090755,85.959684 C32.3271956,75.9692946 29.6108771,70.5065883 27.8601199,69.571565" id="Path-45" stroke="#3F3D56" stroke-width="0.907500039"></path>
                    </g>
                    <g id="Group-51" transform="translate(0.000000, 113.000000)">
                        <path d="M47.0750974,73.9665728 C42.9924171,70.6986326 40.1769234,65.6796568 38.6286163,58.9096452 C36.3061555,48.7546279 11.5294702,37.2586381 6.89961832,32.1214579 C4.3129323,29.2513289 -1.36765028,22.425259 1.19412553,11.5077988 C3.21028385,2.915584 11.2299977,0.097341004 19.7830945,0.805949818 C28.3361913,1.51455863 33.2515433,5.11103352 37.7060195,16.6937432 C42.1604956,28.2764529 43.842101,30.0684209 50.3754682,32.1214579 C56.9088354,34.1744948 56.9088354,42.8872689 56.9088354,47.7805426 C56.9088354,52.6738163 62.1430572,59.6319359 63.4574437,61.6728937 C64.7718302,63.7138516 65.2322048,68.8475383 63.4574437,72.3453449 C61.6826826,75.8431515 58.557487,76.4100617 55.9799141,76.4100617 C54.2615321,76.4100617 51.2932599,75.5955654 47.0750974,73.9665728 Z" id="Path-22" fill="#536DFE" fill-rule="nonzero"></path>
                        <path d="M17.635991,18.1368758 C38.6384666,34.8273821 51.7733462,54.9046638 57.0406297,78.3687208" id="Path-25" stroke="#3F3D56" stroke-width="0.907500039"></path>
                        <path d="M31.9878985,31.1301735 C34.0817756,23.676845 34.9543472,19.135731 34.6056131,17.5068316" id="Path-26-Copy" stroke="#3F3D56" stroke-width="0.907500039"></path>
                        <path d="M28.5248502,27.6715382 C30.6967529,18.947189 31.6083373,13.7705646 31.2596032,12.1416652" id="Path-26-Copy-2" stroke="#3F3D56" stroke-width="0.907500039"></path>
                        <path d="M54.9374079,65.6837114 C56.9005237,59.0907712 57.7084203,54.9798518 57.3610978,53.3509533" id="Path-26-Copy-4" stroke="#3F3D56" stroke-width="0.907500039" transform="translate(56.188412, 59.517332) rotate(12.000000) translate(-56.188412, -59.517332) "></path>
                        <path d="M52.7607795,59.9543699 C54.860468,52.4979992 55.736651,47.9553647 55.3893285,46.3264662" id="Path-26-Copy-5" stroke="#3F3D56" stroke-width="0.907500039" transform="translate(54.112028, 53.140418) rotate(12.000000) translate(-54.112028, -53.140418) "></path>
                    </g>
                    <g id="Group-55" transform="translate(41.000000, 189.000000)">
                        <mask id="mask-2" fill="white">
                            <use xlink:href="#path-1"></use>
                        </mask>
                        <use id="Rectangle-20" fill="#3F3D56" fill-rule="nonzero" xlink:href="#path-1"></use>
                        <polygon id="Path-48" fill="#000000" opacity="0.200000018" mask="url(#mask-2)" points="0.5 10.1197378 45.0631196 16.8381643 46.6176471 9"></polygon>
                    </g>
                    <path d="M42.4963235,186.695652 L87.6139706,186.695652 C88.7185401,186.695652 89.6139706,187.591083 89.6139706,188.695652 L89.6139706,197 C89.6139706,198.104569 88.7185401,199 87.6139706,199 L42.4963235,199 C41.391754,199 40.4963235,198.104569 40.4963235,197 L40.4963235,188.695652 C40.4963235,187.591083 41.391754,186.695652 42.4963235,186.695652 Z" id="Rectangle-20-Copy" fill="#3F3D56" fill-rule="nonzero" transform="translate(65.055147, 192.847826) scale(1, -1) translate(-65.055147, -192.847826) "></path>
                </g>
                <ellipse id="Oval" fill="#EBEEFE" fill-rule="nonzero" transform="translate(801.211098, 263.469958) scale(-1, 1) rotate(-19.000000) translate(-801.211098, -263.469958) " cx="801.211098" cy="263.469958" rx="58" ry="81"></ellipse>
            </g>
        </g>
        <g id="Group" transform="translate(252.000000, 154.000000)">
            <mask id="mask-4" fill="white">
                <use xlink:href="#path-3"></use>
            </mask>
            <use id="Rectangle" fill="#3F3D56" fill-rule="nonzero" transform="translate(219.000000, 221.314530) scale(-1, 1) translate(-219.000000, -221.314530) " xlink:href="#path-3"></use>
            <g id="Group-2" mask="url(#mask-4)">
                <g transform="translate(68.259740, 119.565184)">
                    <path d="M22.7479987,0 L233.077623,0 L301.480519,63.416246 L301.480519,179.347776 L301.480519,250.543851 C301.480519,263.107224 291.295894,273.29185 278.732521,273.29185 L22.7479987,273.29185 C10.1846259,273.29185 1.82763443e-14,263.107224 0,250.543851 L-3.55271368e-15,22.7479987 C-5.0912831e-15,10.1846259 10.1846259,2.30785414e-15 22.7479987,0 Z" id="Rectangle-Copy" fill="#D6DBF5" fill-rule="nonzero" transform="translate(150.740260, 136.645925) scale(1, -1) translate(-150.740260, -136.645925) "></path>
                    <path d="M12.0769432,0.0153750163 L14.1362731,241.310394 C14.2140425,250.422761 21.6641198,257.746749 30.7764865,257.668979 C30.8100174,257.668693 30.8435472,257.668305 30.8770757,257.667814 L271.362607,254.149016 C280.3809,254.01706 287.62218,246.668255 287.621204,237.648997 L287.602285,62.7989381 L301.480519,62.7989381 L301.480519,178.730468 L301.480519,249.926901 C301.480519,262.490274 291.295894,272.6749 278.732521,272.6749 L22.747911,272.674907 C10.1845383,272.674907 -8.76686118e-05,262.490281 -8.76686118e-05,249.926908 C-8.76686118e-05,249.926906 -8.76686115e-05,249.926903 -8.76686107e-05,249.926901 L-3.87943919e-06,11.4761962 C-1.84618839e-06,5.13787763 5.13822226,-0.000343177658 11.4765409,-0.000341144407 C11.6767778,-0.000341080174 11.8769804,0.00489943414 12.0769432,0.0153750163 Z" id="Rectangle-Copy-3" fill-opacity="0.4" fill="#EBEFFF" fill-rule="nonzero" transform="translate(150.740216, 136.337271) scale(1, -1) translate(-150.740216, -136.337271) "></path>
                    <path d="M153.211159,75.630433 C156.884214,75.630433 160.212871,77.0444646 163.197228,79.8725702 L165.148529,76.4329995 L177.659812,76.4329995 L173.986775,97.2997285 C173.068511,102.803069 172.609386,106.987838 172.609386,109.854162 C172.609386,112.720485 173.049381,114.860641 173.929384,116.274694 C174.809387,117.688746 176.550236,118.395762 179.151984,118.395762 C182.595473,118.395762 185.828479,116.160064 188.851098,111.688599 C191.873716,107.217135 193.385003,101.236164 193.385003,93.7455055 C193.385003,82.5859535 190.132867,73.8151359 183.628498,67.4327895 C177.124129,61.050443 168.075539,57.8593176 156.482457,57.8593176 C144.889376,57.8593176 135.037317,61.7574588 126.925986,69.5538581 C118.814655,77.3502573 114.759051,87.8217346 114.759051,100.968604 C114.759051,107.694909 115.964254,113.599447 118.374697,118.682393 C120.785139,123.76534 124.018145,127.759024 128.07381,130.663565 C136.108619,136.319776 145.482423,139.147839 156.195501,139.147839 C166.90858,139.147839 176.01456,135.975822 183.513715,129.631693 L185.350234,131.695436 C181.983266,134.829283 177.678969,137.313392 172.437213,139.147839 C167.195456,140.982286 161.743346,141.899496 156.080719,141.899496 C150.418092,141.899496 144.927721,141.096937 139.609443,139.491796 C134.291164,137.886655 129.508612,135.47898 125.261641,132.268698 C121.014671,129.058415 117.666884,124.816321 115.21818,119.542286 C112.769477,114.268251 111.545143,108.229954 111.545143,101.427213 C111.545143,88.0510382 115.77292,77.0254134 124.2286,68.3500083 C132.68428,59.6746032 143.64589,55.3369658 157.113761,55.3369658 C168.821625,55.3369658 178.29108,58.6427423 185.522408,65.2543947 C192.753736,71.866047 196.369346,81.0954695 196.369346,92.942939 C196.369346,102.49735 194.360673,109.682159 190.343269,114.497582 C186.325864,119.313005 180.51028,121.720681 172.896342,121.720681 C165.282404,121.720681 160.404201,118.969052 158.261585,113.465711 C156.272013,118.816181 152.560752,121.491376 147.127691,121.491376 C141.694629,121.491376 137.524244,119.809825 134.616408,116.446672 C131.708572,113.08352 130.254676,108.956076 130.254676,104.064218 C130.254676,94.8155479 132.626822,87.7644984 137.371186,82.9108577 C142.115549,78.057217 147.395487,75.630433 153.211159,75.630433 Z M158.720714,106.013308 L162.623316,81.4777032 C160.404179,79.1846446 158.032033,78.0381325 155.506807,78.0381325 C152.981581,78.0381325 150.896388,79.2228617 149.251165,81.5923556 C147.605943,83.9618495 146.400739,86.980998 145.635519,90.6498918 C144.258124,97.2233265 143.569436,103.605577 143.569436,109.796835 C143.569436,115.988094 145.520718,119.083676 149.423339,119.083676 C151.642477,119.083676 153.593758,117.86073 155.277242,115.414801 C156.960726,112.968872 158.108538,109.835072 158.720714,106.013308 Z" id="@" fill="#3F3D56" fill-rule="evenodd"></path>
                </g>
            </g>
            <path d="M438,193.581727 L438,438.405675 L250.285714,313.146911 L438,193.581727 Z M0,193.581727 L187.714286,313.146911 L0,438.405675 L0,193.581727 Z" id="Combined-Shape" fill="#536DFE" fill-rule="nonzero" mask="url(#mask-4)"></path>
            <path d="M34.6658291,440.251861 C24.1075638,432.867516 18.7231783,426.794132 18.5126724,422.03171 C8.8040201,202.386049 36.3648759,222.315651 38.3855719,217.465725 C21.0928858,206.528403 8.12337117,198.325412 -0.522971887,192.856751 L-1.36022703,440.251861 L34.6658291,440.251861 Z" id="Path-5" fill-opacity="0.1" fill="#000000" fill-rule="nonzero" mask="url(#mask-4)"></path>
            <path d="M420.942211,205.011166 C426.444724,341.470352 420.208543,412.27411 402.233668,417.422442 C384.258794,422.570775 260.635678,428.714907 31.3643216,435.854839 L31.3643216,441.900744 L439.650754,441.900744 L439.650754,191.76167 L420.942211,205.011166 Z" id="Path-4" fill-opacity="0.1" fill="#000000" fill-rule="nonzero" mask="url(#mask-4)"></path>
            <g id="Group-3" mask="url(#mask-4)" fill-rule="nonzero">
                <g transform="translate(7.703518, 191.270471)">
                    <path d="M422.250994,242.284064 C417.084519,247.598152 409.858528,250.899427 401.861482,250.899427 L20.7314825,250.899427 C12.8006417,250.899427 5.62814126,247.652586 0.470707424,242.41563 L191.047944,92.9081842 C203.447311,83.1809064 220.895254,83.2106051 233.261435,92.9800372 L422.250994,242.284064 Z" id="Combined-Shape" fill="#536DFE"></path>
                    <path d="M422.250994,242.284064 C417.084519,247.598152 409.858528,250.899427 401.861482,250.899427 L20.7314825,250.899427 C12.8006417,250.899427 5.62814126,247.652586 0.470707424,242.41563 L191.047944,92.9081842 C203.447311,83.1809064 220.895254,83.2106051 233.261435,92.9800372 L422.250994,242.284064 Z" id="Combined-Shape-Copy-2" fill-opacity="0.1" fill="#000000"></path>
                    <path d="M79.3891679,204.207323 L75.8531475,199.755011 L197.964618,102.993893 C207.419928,95.5015063 220.829584,95.6223286 230.148045,103.283868 L295.584928,157.085379 L291.969076,161.473252 L226.532193,107.671742 C219.284501,101.712766 208.854768,101.618793 201.500639,107.446205 L79.3891679,204.207323 Z" id="Path-3" fill="#3F3D56" opacity="0.2"></path>
                    <path d="M413.238693,13.7406948 C418.741206,150.19988 412.505025,221.003639 394.530151,226.151971 C376.555276,231.300303 251.464824,239.459737 19.258794,250.630273 L400.047235,250.630273 C417.665119,250.630273 431.947236,236.348156 431.947236,218.730272 L431.947236,0.49119862 L413.238693,13.7406948 Z" id="Path-4" fill-opacity="0.1" fill="#000000"></path>
                </g>
            </g>
        </g>
        <g id="Group-31" transform="translate(566.000000, 68.000000)">
            <g id="Group-2" transform="translate(108.829787, 483.955947)">
                <g id="Group" transform="translate(30.642158, 23.658491) rotate(-13.000000) translate(-30.642158, -23.658491) translate(4.312371, 5.495495)"></g>
                <polygon id="Path-45" fill="#C59A9A" transform="translate(42.854583, 16.785933) rotate(-6.000000) translate(-42.854583, -16.785933) " points="35.50631 8.28464821 33.2424181 26.4258222 50.202054 28.6910283 52.4667472 4.88083746"></polygon>
                <path d="M35.3528402,6.8634602 L34.3483831,14.9108912 C36.5622545,15.6812053 39.1578862,16.201687 42.1352783,16.4723362 C45.1126704,16.7429853 48.0939997,16.7294573 51.0792662,16.4317522 L52.3134467,3.4592749 L35.3528402,6.8634602 Z" id="Path-45-Copy" fill-opacity="0.1" fill="#000000" fill-rule="nonzero" transform="translate(43.330915, 10.062467) rotate(-7.000000) translate(-43.330915, -10.062467) "></path>
                <path d="M9.84456146,33.7881208 C21.5217857,30.0378277 29.9300429,26.4445884 35.0693332,23.008403 C37.7080291,21.8738734 38.8381907,23.7631063 38.4598181,28.6761017 C49.3908587,26.3226866 55.233106,25.7540721 55.98656,26.970258 C57.116741,28.7945369 62.3993221,36.6051521 53.1555238,41.1428791 L18.1032227,40.5864687 C13.5803233,40.5878185 10.5652823,39.8328902 9.05809977,38.3216839 C8.96744762,38.2307897 8.87884033,38.1412621 8.79227791,38.053101 L8.79228003,38.0530989 C7.7937569,37.0361347 7.80870632,35.4022595 8.8256705,34.4037363 C9.11268211,34.1219292 9.4615951,33.9111154 9.84456146,33.7881208 Z" id="Path-44" fill="#323044" fill-rule="nonzero" transform="translate(33.282657, 31.916011) rotate(-13.000000) translate(-33.282657, -31.916011) "></path>
            </g>
            <g id="Group-2-Copy" transform="translate(225.851064, 506.806167) scale(-1, 1) translate(-225.851064, -506.806167) translate(195.425532, 482.784141)">
                <g id="Group" transform="translate(30.642158, 23.658491) rotate(-13.000000) translate(-30.642158, -23.658491) translate(4.312371, 5.495495)"></g>
                <polygon id="Path-45" fill="#C59A9A" transform="translate(42.854583, 16.785933) rotate(-6.000000) translate(-42.854583, -16.785933) " points="35.50631 8.28464821 33.2424181 26.4258222 50.202054 28.6910283 52.4667472 4.88083746"></polygon>
                <path d="M35.3528402,6.8634602 L34.3483831,14.9108912 C36.5622545,15.6812053 39.1578862,16.201687 42.1352783,16.4723362 C45.1126704,16.7429853 48.0939997,16.7294573 51.0792662,16.4317522 L52.3134467,3.4592749 L35.3528402,6.8634602 Z" id="Path-45-Copy" fill-opacity="0.1" fill="#000000" fill-rule="nonzero" transform="translate(43.330915, 10.062467) rotate(-7.000000) translate(-43.330915, -10.062467) "></path>
                <path d="M9.84456146,33.7881208 C21.5217857,30.0378277 29.9300429,26.4445884 35.0693332,23.008403 C37.7080291,21.8738734 38.8381907,23.7631063 38.4598181,28.6761017 C49.3908587,26.3226866 55.233106,25.7540721 55.98656,26.970258 C57.116741,28.7945369 62.3993221,36.6051521 53.1555238,41.1428791 L18.1032227,40.5864687 C13.5803233,40.5878185 10.5652823,39.8328902 9.05809977,38.3216839 C8.96744762,38.2307897 8.87884033,38.1412621 8.79227791,38.053101 L8.79228003,38.0530989 C7.7937569,37.0361347 7.80870632,35.4022595 8.8256705,34.4037363 C9.11268211,34.1219292 9.4615951,33.9111154 9.84456146,33.7881208 Z" id="Path-44" fill="#323044" fill-rule="nonzero" transform="translate(33.282657, 31.916011) rotate(-13.000000) translate(-33.282657, -31.916011) "></path>
            </g>
            <g id="bottom" transform="translate(174.933112, 370.856671) scale(-1, 1) rotate(4.000000) translate(-174.933112, -370.856671) translate(121.103324, 242.543895)">
                <mask id="mask-6" fill="white">
                    <use xlink:href="#path-5"></use>
                </mask>
                <use id="Combined-Shape" fill="#3F3D56" fill-rule="nonzero" xlink:href="#path-5"></use>
                <path d="M3.18543302,16.4215479 C21.1450712,21.8042393 34.3068469,25.4988686 42.6707602,27.5054358 C63.8271338,32.5810126 83.6263382,42.844991 100.293435,25.2325807 L99.3491481,11.7102682 L3.18543302,16.4215479 Z" id="Path-110" fill-opacity="0.200000018" fill="#000000" fill-rule="nonzero" mask="url(#mask-6)"></path>
                <path d="M58.939989,132.048095 L68.2978387,249.347047 C78.5245894,256.819348 86.3649713,256.819348 91.8189842,249.347047 C67.6529313,227.098086 74.8405171,153.769367 74.8405171,132.048095 C74.8405171,117.567246 69.5403411,92.9517475 58.939989,58.2015986 L52.6338818,111.383865 L58.939989,132.048095 Z" id="Path-109" fill-opacity="0.2" fill="#000000" fill-rule="nonzero" mask="url(#mask-6)"></path>
                <path d="M11.7237354,244.038227 C18.5693894,249.439564 27.1619355,249.778452 37.5013735,245.054891" id="Path-89" stroke="#FFFFFF" stroke-width="1.93427708" stroke-linecap="round" stroke-linejoin="round" fill-rule="nonzero" mask="url(#mask-6)"></path>
                <path d="M71.9184804,239.051901 C81.6903199,243.641871 90.5486185,243.606072 98.4933761,238.944504" id="Path-90" stroke="#FFFFFF" stroke-width="1.93427708" stroke-linecap="round" stroke-linejoin="round" fill-rule="nonzero" mask="url(#mask-6)"></path>
            </g>
            <g id="head" transform="translate(129.893617, 0.000000)">
                <path d="M21.3012838,66.7929515 C22.272409,59.9001875 22.272409,55.7207455 21.3012838,54.2546256 C20.1723069,52.5501951 3.5106383,51.5594714 1.17021277,44.7981961 C-0.390070922,40.2906792 0.390070922,36.2812186 3.5106383,32.7698142 C-1.56028369,24.5943434 0.975177305,19.5301028 11.1170213,17.5770925 C9.94680851,13.2804699 10.3368794,9.7650514 12.287234,7.030837 C15.212766,2.92951542 23.9893617,0.398923291 29.8404255,5.27312775 C32.9990481,1.12928839 36.8997573,-0.27923325 41.5425532,1.04756284 C48.1851317,2.9458473 48.3829129,6.58495833 48.5638298,15.2334802 C54.1731003,12.1539479 57.4887031,12.935152 58.5106383,17.5770925 C59.5325735,22.219033 59.2938255,25.3752939 57.7943943,27.045875 C61.9809867,28.8475862 63.0523477,32.695701 61.0084774,38.5902196 C58.9646071,44.4847382 54.2450022,48.8078221 46.8496628,51.5594714 C44.607523,58.1521325 41.8633092,62.3104949 38.6170213,64.0345587 C35.3707333,65.7586224 29.5988208,66.6780867 21.3012838,66.7929515 Z" id="Path-39-Copy" fill="#3F3D56" fill-rule="nonzero"></path>
                <path d="M16.3829787,25.7293541 L16.3829787,37.4735305 C13.9913707,36.7146781 12.431087,36.7146781 11.7021277,37.4735305 C10.6086887,38.611809 9.91171567,41.4662046 12.287234,43.3568282 C13.870913,44.6172439 15.4400444,45.3020028 16.9946284,45.4111049 C18.2083492,49.2734768 19.9548205,52.6951343 22.2340426,55.6760774 C25.6528756,60.147492 29.7489207,62.0227792 32.7659574,62.1057269 C41.1025064,62.3349244 42.3749123,57.5529452 43.8829787,57.0637624 C42.3036833,60.8280968 40.3533287,63.2372876 38.0319149,64.291335 C32.9609929,66.5938077 27.6950355,65.8652717 22.2340426,62.1057269 C19.3874689,70.391578 17.4371143,75.3264412 16.3829787,76.9103167 C11.3253504,84.5095798 7.60638038,87.0827779 7.0212766,87.6112692 C30.5847445,99.144273 48.5280069,97.0651547 60.8510638,81.3739141 C50.9559994,76.7151902 45.4950065,70.2924611 44.4680851,62.1057269 C44.5238095,57.8083921 44.8780576,55.1913584 45.5308294,54.2546256 C46.509987,52.8495265 47.4772036,48.0032944 47.4772036,42.0710175 C49.7704143,40.4634498 51.2152689,39.0004833 51.8117673,37.6821181 C53.2145575,34.5817077 50.9716806,31.9452448 49.2444637,31.8917677 C48.2121622,31.8598063 46.736865,32.7194454 46.2234043,33.9823789 C44.5198292,31.9692745 43.154581,28.0632539 42.1276596,22.2643172 C36.5098616,24.1317978 32.024046,25.2868101 28.6702128,25.7293541 C25.2017852,26.187019 21.1060405,26.187019 16.3829787,25.7293541 Z" id="Path-34-Copy" fill="#C59A9A"></path>
                <ellipse id="Oval" stroke="#3F3D56" stroke-width="1.17299998" fill-rule="nonzero" cx="38.6170213" cy="35.154185" rx="5.85106383" ry="5.85903084"></ellipse>
                <ellipse id="Oval-Copy" stroke="#3F3D56" stroke-width="1.17299998" fill-rule="nonzero" cx="23.4042553" cy="37.4977974" rx="5.85106383" ry="5.85903084"></ellipse>
                <path d="M29.5196013,37.3277858 L28.6953348,36.4960028 C29.4946246,35.7017774 30.2322488,35.2476127 30.9376149,35.1587659 C31.6205304,35.072747 32.2539058,35.2439665 33.3510638,35.7400881 L33.1102595,36.8531147 C32.192149,36.4379563 31.506045,36.2682076 31.0836617,36.3214103 C30.6837289,36.3717852 30.152573,36.6988246 29.5196013,37.3277858 Z" id="Path-9" fill="#3F3D56" fill-rule="nonzero"></path>
                <path d="M43.8829787,32.8105727 L47.393617,32.8105727" id="Path-10" stroke="#3F3D56" stroke-width="1.17299998" fill-rule="nonzero"></path>
                <path d="M14.6276596,36.3259912 L18.1382979,36.3259912" id="Path-10-Copy" stroke="#3F3D56" stroke-width="1.17299998" fill-rule="nonzero"></path>
            </g>
            <g id="Group-30" transform="translate(0.000000, 94.916300)">
                <g id="Combined-Shape-2" transform="translate(19.961333, 67.356005) rotate(-52.000000) translate(-19.961333, -67.356005) translate(7.088993, 53.294331)">
                    <mask id="mask-8" fill="white">
                        <use xlink:href="#path-7"></use>
                    </mask>
                    <use id="Combined-Shape" fill="#C59A9A" xlink:href="#path-7"></use>
                </g>
                <path d="M31.6440764,60.0579037 C28.4805475,64.8402913 27.4260379,70.3385239 28.4805475,76.5526015 C71.8960758,96.4739025 97.118872,103.394885 104.148936,97.315548 L134.574468,63.3331691 L133.404255,0 C122.835843,5.07354275 115.805778,9.05199587 112.314063,11.9353594 C105.515113,17.5497469 101.537368,25.5234345 100.714457,27.4863197 C99.4599071,30.47879 95.7167244,42.2422254 89.4849088,62.7766261 L89.4849003,62.7766235 C88.8270833,64.9441904 86.714598,66.332309 84.4639722,66.0758862 L31.6440764,60.0579037 Z" id="Path-57-Copy" fill="#D6DBF5" fill-rule="nonzero"></path>
                <path d="M28.1115877,70.8986647 C28.0257122,72.7124182 28.1486988,74.5970637 28.4805475,76.5526015 C71.8960758,96.4739025 97.118872,103.394885 104.148936,97.315548 L134.574468,63.3331691 L133.404255,0 C122.835843,5.07354275 115.805778,9.05199587 112.314063,11.9353594 C105.515113,17.5497469 108.014786,31.8427235 106.489362,33.3964758 C94.787234,45.3159149 112.314063,76.5526015 97.1276596,86.5982746 C81.9412564,96.6439478 28.1648334,69.7740763 28.1115877,70.8986647 Z" id="Path-57-Copy-2" fill-opacity="0.04" fill="#000000" fill-rule="nonzero"></path>
            </g>
            <g id="Group-82" transform="translate(20.646304, 160.356376) rotate(-52.000000) translate(-20.646304, -160.356376) translate(7.773964, 146.294702)"></g>
            <g id="body" transform="translate(111.170213, 79.682819)" fill-rule="nonzero">
                <path d="M2.99634974,26.9515419 C4.39804531,24.6010108 7.21164196,21.6112575 11.4371397,17.9822822 C15.6626374,14.3533068 21.9164872,9.93913436 30.198689,4.73976489 C35.8258824,11.7513872 43.5632731,14.8111116 53.4108614,13.918938 C63.2584497,13.0267644 70.8094392,8.55772016 76.0638298,0.511805188 C103.247323,9.55269972 118.070018,17.7800422 120.531915,25.1938326 C122.993812,32.607623 121.843435,82.6046862 117.080784,175.185022 C106.939504,177.281152 99.1766924,178.806368 93.7923489,179.760671 C83.3345874,181.614171 54.6012593,187.057789 43.0915877,188.596887 C26.5455189,189.806233 15.1071882,185.391869 8.77659574,175.353795 C4.5984466,139.043043 1.89155609,110.86954 0.655924203,90.8332874 C-0.218641401,76.651865 0.561500443,55.3579498 2.99634974,26.9515419 Z" id="Path-50-Copy" fill="#D6DBF5"></path>
                <path d="M48.7509234,14.154827 L45.9340051,17.3965644 L50.3708993,23.9139429 C47.40654,49.022199 45.4397455,70.2424087 44.4705158,87.574572 C43.5012861,104.906735 43.1328824,125.445498 43.3653046,149.190861 L51.1981616,155.47068 L56.790843,145.975778 C55.5747371,128.344008 54.7113825,109.202912 54.2007791,88.5524884 C53.6901757,67.9020651 53.5455367,46.2766966 53.766862,23.6763829 L57.2538809,16.6046978 L54.3295888,14.061674 L48.7509234,14.154827 Z" id="Path-20" fill="#3F3D56"></path>
                <path d="M53.6704884,17.0509625 L62.0212766,29.8810573 L76.0638298,4.10132159 C71.3455052,9.14367784 67.444796,12.4637953 64.3617021,14.061674 C61.2786083,15.6595527 57.7148704,16.6559822 53.6704884,17.0509625 Z" id="Path-7" fill-opacity="0.14" fill="#000000"></path>
                <path d="M30.4255319,17.2759679 L42.1276596,29.2951542 L49.1489362,8.20264317 C46.8480848,11.2919891 44.1561123,13.6356015 41.0730185,15.2334802 C37.9899246,16.8313589 34.4407624,17.5121881 30.4255319,17.2759679 Z" id="Path-7-Copy" fill-opacity="0.14" fill="#000000" transform="translate(39.787234, 18.748899) scale(-1, 1) translate(-39.787234, -18.748899) "></path>
                <path d="M53.6704884,13.535544 L62.0212766,26.3656388 L76.0638298,0.585903084 C71.3455052,5.62825934 67.444796,8.94837681 64.3617021,10.5462555 C61.2786083,12.1441342 57.7148704,13.1405637 53.6704884,13.535544 Z" id="Path-7-Copy-3" fill="#D6DBF5"></path>
                <path d="M30.4255319,13.7605494 L42.1276596,25.7797357 L49.1489362,4.68722467 C46.8480848,7.77657065 44.1561123,10.120183 41.0730185,11.7180617 C37.9899246,13.3159404 34.4407624,13.9967696 30.4255319,13.7605494 Z" id="Path-7-Copy-2" fill="#D6DBF5" transform="translate(39.787234, 15.233480) scale(-1, 1) translate(-39.787234, -15.233480) "></path>
                <path d="M116.341898,27.4430585 C117.954995,41.3325105 116.695524,88.9747151 112.563484,170.369672 C106.804566,173.999945 100.72269,177.146708 94.317856,179.809961 C101.431614,145.834036 103.276088,121.061529 99.8512765,105.492442 C91.4593267,76.0117121 87.6091466,55.10454 88.3007363,42.7709251 C89.3381209,24.2705028 102.393617,12.2391624 114.680851,25.4543829 C115.238685,26.054347 115.79261,26.7189118 116.341898,27.4430585 Z" id="Combined-Shape" fill-opacity="0.2" fill="#000000"></path>
                <path d="M73.7734708,3.10213718 C74.5785088,2.13507183 75.3405408,1.1010261 76.0595667,0 C103.24306,9.04089453 118.065755,17.268237 120.527652,24.6820274 C122.989549,32.0958178 121.839172,82.092881 117.076521,174.673217 C106.935241,176.769346 99.1724293,178.294563 93.7880858,179.248866 C92.8236826,179.419794 91.7038582,179.621253 90.4564531,179.847366 C73.2925725,155.041643 67.7315785,96.6724429 73.7734708,4.73976489 L73.7734708,3.10213718 Z" id="Combined-Shape" fill="#3F3D56"></path>
                <path d="M30.6758193,5.31883505 L31.2724149,9.96035242 C33.8066374,92.1649016 29.7945241,150.48292 19.2360748,184.914406 C14.8780654,182.687091 11.3915724,179.50022 8.77659574,175.353795 C4.5984466,139.043043 1.89155609,110.86954 0.655924203,90.8332874 C-0.218641401,76.651865 0.561500443,55.3579498 2.99634974,26.9515419 C4.39804531,24.6010108 7.21164196,21.6112575 11.4371397,17.9822822 C15.6626374,14.3533068 21.9164872,9.93913436 30.198689,4.73976489 C30.3560816,4.93587993 30.515125,5.12890332 30.6758193,5.31883505 Z" id="Combined-Shape" fill="#3F3D56"></path>
            </g>
            <g id="2" transform="translate(184.893617, 228.502203)"></g>
            <g id="test" transform="translate(211.205628, 242.124895) rotate(-61.000000) translate(-211.205628, -242.124895) translate(173.758820, 191.151327)" fill-rule="nonzero">
                <rect id="Rectangle" fill="#536DFE" x="1.17021277" y="6.10743214" width="70.212766" height="95.8397044" rx="7.03799997"></rect>
                <rect id="Rectangle" fill="#D6DBF5" x="7.98014659" y="20.90621" width="56.5928983" height="70.2354697" rx="2.34599999"></rect>
                <path d="M9.8828984,48.2676202 L74.50366,37.3854729 L71.9204096,74.600296 C60.3217953,79.8514268 40.096666,79.7232485 11.2450217,74.2157611 C11.9672522,82.6035497 12.9655716,89.1230402 14.3204298,90.9652977 C18.6765651,96.8885172 35.8469412,100.359605 65.831558,101.378561 C65.3523392,101.481604 64.8549943,101.535853 64.3449788,101.535853 L8.20821274,101.535853 C4.32123268,101.535853 1.17021277,98.3848334 1.17021277,94.4978533 L1.17021277,72.1505915 C0.966970895,72.1062465 0.76335326,72.0616673 0.559359858,72.0168537 L1.17021277,68.9657273 L1.17021277,12.7341488 C1.17021277,9.36606559 3.53608975,6.55056252 6.69661503,5.85886832 L14.3204298,6.08334401 C11.3988963,9.81076466 9.8333943,15.0629104 9.62392372,21.8397812 C9.50036617,25.8371614 9.53433327,36.4745301 9.8828984,48.2676202 Z" id="Combined-Shape" fill-opacity="0.2" fill="#000000"></path>
                <path d="M53.7710809,8.06329324 L53.7710809,19.5909443 C53.7710809,21.7455286 52.0333225,23.4901236 49.8875627,23.4901236 L22.9004541,23.4901236 C20.7545237,23.4901236 19.0169359,21.7453573 19.0169359,19.5909443 L19.0169359,8.06329324 C19.0169359,5.90870895 20.7546943,4.16411391 22.9004541,4.16411391 L29.6945642,4.16411391 C30.9207858,1.69647182 33.4605603,4.54747351e-12 36.394179,4.54747351e-12 C36.8504514,4.54747351e-12 37.2978543,0.0411016796 37.7309293,0.119879899 C39.7840701,0.490308786 41.5450259,1.70349336 42.6482671,3.38746342 C42.6625949,3.40887055 42.6750465,3.4285651 42.687498,3.45014348 C42.7925686,3.61300889 42.8925221,3.78118326 42.9834355,3.95295403 C43.0243721,4.02813585 43.0618973,4.09972128 43.0939643,4.16411391 L49.8880744,4.16411391 C52.0334931,4.16411391 53.7710809,5.90888021 53.7710809,8.06329324 Z" id="Path" fill="#3F3D56"></path>
                <path d="M53.7710809,8.06329324 L53.7710809,19.5909443 C53.7710809,21.7455286 52.0284337,23.4901236 49.8766373,23.4901236 L25.4944578,23.4901236 C23.3424904,23.4901236 21.6000142,21.7453573 21.6000142,19.5909443 L21.6000142,8.06329324 C21.6000142,5.90870895 23.3426614,4.16411391 25.4944578,4.16411391 L29.6266595,4.16411391 C30.8563308,1.69647182 33.4032504,9.09494702e-13 36.3451221,9.09494702e-13 C36.8026782,9.09494702e-13 37.2513397,0.0411016795 37.6856331,0.119879899 C39.7445499,0.490308786 41.5104597,1.70349336 42.6168047,3.38746342 C42.6311728,3.40887055 42.6436594,3.4285651 42.6561459,3.45014348 C42.7705777,3.63441601 42.8706414,3.80447421 42.952916,3.95295403 C42.9939677,4.02813585 43.0315985,4.09972128 43.0637557,4.16411391 L49.8769794,4.16411391 C52.0286048,4.16411391 53.7710809,5.90888021 53.7710809,8.06329324 Z" id="Path" fill-opacity="0.1" fill="#EBEFFF"></path>
                <ellipse id="Oval" fill="#D6DBF5" cx="36.3940084" cy="6.10743214" rx="2.58307835" ry="2.5839136"></ellipse>
                <path d="M46.0273684,17.6175927 L26.7606483,17.6175927 C25.7261947,17.6175927 24.8875685,16.7762219 24.8875685,15.7383828 C24.8875685,14.7005437 25.7261947,13.8591729 26.7606483,13.8591729 L46.0273684,13.8591729 C47.0618221,13.8591729 47.9004483,14.7005437 47.9004483,15.7383828 C47.900619,16.7762219 47.0619928,17.6175927 46.0273684,17.6175927 Z" id="Path" fill="#D6DBF5"></path>
                <path d="M25.2185935,45.1010374 L13.9894048,45.1010374 C13.0051514,45.1010374 12.2070021,44.3028006 12.2070021,43.3180583 L12.2070021,32.0852386 C12.2070021,31.1004963 13.0051514,30.3022595 13.9894048,30.3022595 L25.2185935,30.3022595 C26.2028469,30.3022595 27.0009962,31.1004963 27.0009962,32.0852386 L27.0009962,43.3180583 C27.0009962,44.3028006 26.2028469,45.1010374 25.2185935,45.1010374 Z M15.7719782,41.5350791 L23.4363613,41.5350791 L23.4363613,33.8682177 L15.7719782,33.8682177 L15.7719782,41.5350791 Z" id="Shape" fill="#3F3D56"></path>
                <g id="Group" transform="translate(30.053725, 32.416371)" fill="#3F3D56">
                    <path d="M13.1096965,3.6621923 L1.8589702,3.6621923 C0.872828982,3.6621923 0.073148777,2.85984425 0.073148777,1.8700301 C0.073148777,0.880215947 0.872828982,0.0778678955 1.8589702,0.0778678955 L13.1096965,0.0778678955 C14.0958377,0.0778678955 14.8955179,0.880215947 14.8955179,1.8700301 C14.8955179,2.85984425 14.0958377,3.6621923 13.1096965,3.6621923 Z" id="Path"></path>
                    <path d="M27.0390694,10.6516077 L1.85914111,10.6516077 C0.87299989,10.6516077 0.0733196854,9.8492597 0.0733196854,8.85944554 C0.0733196854,7.86963139 0.87299989,7.06728334 1.85914111,7.06728334 L27.0392403,7.06728334 C28.0253816,7.06728334 28.8250618,7.86963139 28.8250618,8.85944554 C28.8250618,9.8492597 28.0252106,10.6516077 27.0390694,10.6516077 Z" id="Path"></path>
                </g>
                <path d="M25.2185935,64.3629388 L13.9894048,64.3629388 C13.0051514,64.3629388 12.2070021,63.564702 12.2070021,62.5799596 L12.2070021,51.34714 C12.2070021,50.3623977 13.0051514,49.5641609 13.9894048,49.5641609 L25.2185935,49.5641609 C26.2028469,49.5641609 27.0009962,50.3623977 27.0009962,51.34714 L27.0009962,62.5799596 C27.0009962,63.564702 26.2028469,64.3629388 25.2185935,64.3629388 Z M15.7719782,60.7969805 L23.4363613,60.7969805 L23.4363613,53.1301191 L15.7719782,53.1301191 L15.7719782,60.7969805 Z" id="Shape" fill="#3F3D56"></path>
                <path d="M25.2185935,83.3899389 L13.9894048,83.3899389 C13.0051514,83.3899389 12.2070021,82.5917021 12.2070021,81.6069598 L12.2070021,70.3741401 C12.2070021,69.3893978 13.0051514,68.591161 13.9894048,68.591161 L25.2185935,68.591161 C26.2028469,68.591161 27.0009962,69.3893978 27.0009962,70.3741401 L27.0009962,81.6069598 C27.0009962,82.5917021 26.2028469,83.3899389 25.2185935,83.3899389 Z M15.7719782,79.8239807 L23.4363613,79.8239807 L23.4363613,72.1571192 L15.7719782,72.1571192 L15.7719782,79.8239807 Z" id="Shape-Copy" fill="#3F3D56"></path>
                <g id="Group" transform="translate(30.053725, 51.678272)" fill="#3F3D56">
                    <path d="M13.1096965,3.61444806 L1.8589702,3.61444806 C0.872828982,3.61444806 0.073148777,2.81688258 0.073148777,1.83296845 C0.073148777,0.849054307 0.872828982,0.0514888355 1.8589702,0.0514888355 L13.1096965,0.0514888355 C14.0958377,0.0514888355 14.8955179,0.849054307 14.8955179,1.83296845 C14.8955179,2.81688258 14.0958377,3.61444806 13.1096965,3.61444806 Z" id="Path"></path>
                    <path d="M27.0390694,10.5622015 L1.85914111,10.5622015 C0.87299989,10.5622015 0.0733196854,9.76463601 0.0733196854,8.78072188 C0.0733196854,7.79680774 0.87299989,6.99924227 1.85914111,6.99924227 L27.0392403,6.99924227 C28.0253816,6.99924227 28.8250618,7.79680774 28.8250618,8.78072188 C28.8248909,9.76463601 28.0252106,10.5622015 27.0390694,10.5622015 Z" id="Path"></path>
                </g>
                <g id="Group" transform="translate(30.053725, 70.940173)" fill="#3F3D56">
                    <path d="M13.1096965,3.58870364 L1.8589702,3.58870364 C0.872828982,3.58870364 0.073148777,2.79113817 0.073148777,1.80722403 C0.073148777,0.82330989 0.872828982,0.0257444178 1.8589702,0.0257444178 L13.1096965,0.0257444178 C14.0958377,0.0257444178 14.8955179,0.82330989 14.8955179,1.80722403 C14.8955179,2.79113817 14.0958377,3.58870364 13.1096965,3.58870364 Z" id="Path"></path>
                    <path d="M27.0390694,10.5364571 L1.85914111,10.5364571 C0.87299989,10.5364571 0.0733196854,9.7388916 0.0733196854,8.75497746 C0.0733196854,7.77106332 0.87299989,6.97349785 1.85914111,6.97349785 L27.0392403,6.97349785 C28.0253816,6.97349785 28.8250618,7.77106332 28.8250618,8.75497746 C28.8248909,9.7388916 28.0252106,10.5364571 27.0390694,10.5364571 Z" id="Path"></path>
                </g>
                <path d="M19.4807147,62.7186301 C18.8861446,62.7186301 18.3264787,62.4223847 17.9936906,61.9232292 L12.272643,53.3495489 C11.7249541,52.5288483 11.9468699,51.4197658 12.7684888,50.872575 C13.5901077,50.3253843 14.7000289,50.5470983 15.2477178,51.3681408 L19.2172217,57.3168098 L24.3016088,46.5928291 C24.724053,45.7013578 25.7901728,45.3208372 26.6826268,45.743239 C27.5749097,46.1654699 27.9556056,47.23062 27.5329904,48.1220912 L21.0969188,61.6968997 C20.8212778,62.2784501 20.2535703,62.6668342 19.6112635,62.7138437 C19.5672909,62.7170916 19.5238317,62.7186301 19.4807147,62.7186301 Z" id="Path" fill="#536DFE"></path>
            </g>
            <g id="hand" transform="translate(190.744681, 92.572687)">
                <g id="Path-88" transform="translate(0.000000, 161.709251)">
                    <mask id="mask-10" fill="white">
                        <use xlink:href="#path-9"></use>
                    </mask>
                    <use id="Path-87" fill="#C59A9A" transform="translate(16.422753, 13.886093) rotate(-89.000000) translate(-16.422753, -13.886093) " xlink:href="#path-9"></use>
                </g>
                <path d="M8.77659574,21.8981278 C9.81398029,3.39770549 25.1595745,-6.50973632 37.4468085,6.70548426 C49.7340426,19.9207048 60.1245865,64.4786131 60.8510638,86.7435429 C61.1470826,95.8158674 59.8311354,111.147607 50.9042553,134.171806 C47.3390035,143.367299 41.1637103,156.257167 32.3783755,172.84141 C28.3441222,172.693972 25.0904083,171.970498 22.6172339,170.670989 C20.1440595,169.37148 18.060956,167.290767 16.3679235,164.42885 C27.7163536,125.182283 31.6220813,97.5195097 28.0851064,81.4405286 C14.5211763,54.0792096 8.08500605,34.2317426 8.77659574,21.8981278 Z" id="Path-58-Copy" fill="#D6DBF5" fill-rule="nonzero"></path>
                <path d="M23.428136,0.797634605 C27.9330354,0.0908350038 32.8993734,1.81460664 37.4468085,6.70548426 C49.7340426,19.9207048 60.1245865,64.4786131 60.8510638,86.7435429 C61.1470826,95.8158674 59.8311354,111.147607 50.9042553,134.171806 C47.3390035,143.367299 41.1637103,156.257167 32.3783755,172.84141 C28.3441222,172.693972 25.0904083,171.970498 22.6172339,170.670989 C18.1758997,166.910377 16.0978146,164.899636 16.3829787,164.638767 C23.428136,158.193833 52.6595745,157.077663 55.5851064,92.6283233 C58.5612882,27.06317 21.6489362,33.9823789 13.4574468,8.34483584 C13.0397198,7.03744306 13.8901748,5.69678297 17.5531915,3.36236057 C18.5092819,2.75304888 20.4675967,1.89814022 23.428136,0.797634605 Z" id="Path-58-Copy-3" fill-opacity="0.04" fill="#000000" fill-rule="nonzero"></path>
            </g>
        </g>
    </g>
</svg>